# xmcd
#
# Track frame offsets: 
#        150
#        17170
#        34417
#        50355
#        63812
#        74500
#        89302
#        100660
#        113797
#        124680
#        140807
#        163055
#        183437
#        200227
#        212687
#        226530
#        239987
#        255375
#
# Disc length: 3647 seconds
#
# Revision: 4
# Processed by: cddbd v1.5PL3 Copyright (c) Steve Scherf et al.
# Submitted via: ExactAudioCopy v0.90b4
#
DISCID=060e3d12
DTITLE=Delbert McClinton - Ultimate Collection
DYEAR=1999
DGENRE=Blues
TTITLE0=Giving It Up For Your Love
TTITLE1=B-Movie Boxcar Blues
TTITLE2=Love Rustler
TTITLE3=Two More Bottles Of Wine
TTITLE4=Victim Of Life's Circumstances
TTITLE5=Honky Tonkin' (I Guess I Done Me Some)
TTITLE6=Special Love Song
TTITLE7=I'm Dyin' As Fast As I Can
TTITLE8=Lipstick, Powder and Paint
TTITLE9=Under Suspicion
TTITLE10=Take It Easy
TTITLE11=The Jealous Kind
TTITLE12=Shot From The Saddle
TTITLE13=It Ain't What You Eat But How You Chew It
TTITLE14=Plain Old Makin' Love
TTITLE15=Sandy Beaches
TTITLE16=Heartbreak Radio
TTITLE17=You Were Never Mine
EXTD=Spelling of titles corrected.
EXTT0=
EXTT1=
EXTT2=
EXTT3=
EXTT4=
EXTT5=
EXTT6=
EXTT7=
EXTT8=
EXTT9=
EXTT10=
EXTT11=
EXTT12=
EXTT13=
EXTT14=
EXTT15=
EXTT16=
EXTT17=
PLAYORDER=
